<mxfile host="app.diagrams.net" modified="2024-01-15T20:53:42.144Z" agent="Mozilla/5.0 (Windows NT 10.0; Win64; x64; rv:121.0) Gecko/20100101 Firefox/121.0" etag="mCZimT2S_AfFfQXste29" version="22.1.18" type="device">
  <diagram name="Page-1" id="zFH8Bv8bcDbfKT7zOnhw">
    <mxGraphModel dx="1070" dy="703" grid="1" gridSize="10" guides="1" tooltips="1" connect="1" arrows="1" fold="1" page="1" pageScale="1" pageWidth="850" pageHeight="1100" math="0" shadow="0">
      <root>
        <mxCell id="0" />
        <mxCell id="1" parent="0" />
        <mxCell id="aqeLNekioee-tkTE74Kx-31" value="" style="rounded=0;whiteSpace=wrap;html=1;" parent="1" vertex="1">
          <mxGeometry x="80" y="50" width="680" height="530" as="geometry" />
        </mxCell>
        <mxCell id="aqeLNekioee-tkTE74Kx-1" value="Kafka" style="rounded=0;whiteSpace=wrap;html=1;verticalAlign=top;fillColor=#d5e8d4;strokeColor=#82b366;" parent="1" vertex="1">
          <mxGeometry x="420" y="150" width="120" height="270" as="geometry" />
        </mxCell>
        <mxCell id="aqeLNekioee-tkTE74Kx-6" style="edgeStyle=orthogonalEdgeStyle;rounded=0;orthogonalLoop=1;jettySize=auto;html=1;exitX=0.55;exitY=0.95;exitDx=0;exitDy=0;exitPerimeter=0;entryX=0;entryY=0.5;entryDx=0;entryDy=0;" parent="1" source="aqeLNekioee-tkTE74Kx-2" target="aqeLNekioee-tkTE74Kx-4" edge="1">
          <mxGeometry relative="1" as="geometry">
            <Array as="points">
              <mxPoint x="160" y="156" />
              <mxPoint x="160" y="180" />
            </Array>
          </mxGeometry>
        </mxCell>
        <mxCell id="TEpTFiBEpdvt5dawATSR-3" value="1." style="edgeLabel;html=1;align=center;verticalAlign=middle;resizable=0;points=[];" parent="aqeLNekioee-tkTE74Kx-6" vertex="1" connectable="0">
          <mxGeometry x="0.0303" relative="1" as="geometry">
            <mxPoint x="11" as="offset" />
          </mxGeometry>
        </mxCell>
        <mxCell id="aqeLNekioee-tkTE74Kx-2" value="Ã–ffi.at" style="ellipse;shape=cloud;whiteSpace=wrap;html=1;fillColor=#d5e8d4;strokeColor=#82b366;" parent="1" vertex="1">
          <mxGeometry x="80" y="80" width="130" height="80" as="geometry" />
        </mxCell>
        <mxCell id="aqeLNekioee-tkTE74Kx-14" style="edgeStyle=orthogonalEdgeStyle;rounded=0;orthogonalLoop=1;jettySize=auto;html=1;exitX=1;exitY=0.5;exitDx=0;exitDy=0;entryX=0;entryY=0.5;entryDx=0;entryDy=0;" parent="1" source="aqeLNekioee-tkTE74Kx-4" target="aqeLNekioee-tkTE74Kx-10" edge="1">
          <mxGeometry relative="1" as="geometry" />
        </mxCell>
        <mxCell id="TEpTFiBEpdvt5dawATSR-4" value="2." style="edgeLabel;html=1;align=center;verticalAlign=middle;resizable=0;points=[];" parent="aqeLNekioee-tkTE74Kx-14" vertex="1" connectable="0">
          <mxGeometry x="-0.55" y="-1" relative="1" as="geometry">
            <mxPoint as="offset" />
          </mxGeometry>
        </mxCell>
        <mxCell id="aqeLNekioee-tkTE74Kx-4" value="producer_interruptions" style="rounded=1;whiteSpace=wrap;html=1;fillColor=#d5e8d4;strokeColor=#82b366;" parent="1" vertex="1">
          <mxGeometry x="210" y="150" width="130" height="60" as="geometry" />
        </mxCell>
        <mxCell id="aqeLNekioee-tkTE74Kx-7" style="edgeStyle=orthogonalEdgeStyle;rounded=0;orthogonalLoop=1;jettySize=auto;html=1;exitX=0.31;exitY=0.8;exitDx=0;exitDy=0;exitPerimeter=0;entryX=0;entryY=0.75;entryDx=0;entryDy=0;" parent="1" source="aqeLNekioee-tkTE74Kx-8" target="aqeLNekioee-tkTE74Kx-9" edge="1">
          <mxGeometry relative="1" as="geometry">
            <Array as="points">
              <mxPoint x="120" y="320" />
            </Array>
          </mxGeometry>
        </mxCell>
        <mxCell id="TEpTFiBEpdvt5dawATSR-8" value="5." style="edgeLabel;html=1;align=center;verticalAlign=middle;resizable=0;points=[];" parent="aqeLNekioee-tkTE74Kx-7" vertex="1" connectable="0">
          <mxGeometry x="0.0567" y="1" relative="1" as="geometry">
            <mxPoint as="offset" />
          </mxGeometry>
        </mxCell>
        <mxCell id="aqeLNekioee-tkTE74Kx-8" value="openmeteo API" style="ellipse;shape=cloud;whiteSpace=wrap;html=1;fillColor=#d5e8d4;strokeColor=#82b366;" parent="1" vertex="1">
          <mxGeometry x="80" y="210" width="130" height="80" as="geometry" />
        </mxCell>
        <mxCell id="aqeLNekioee-tkTE74Kx-13" style="edgeStyle=orthogonalEdgeStyle;rounded=0;orthogonalLoop=1;jettySize=auto;html=1;exitX=1;exitY=0.75;exitDx=0;exitDy=0;entryX=0;entryY=0.5;entryDx=0;entryDy=0;" parent="1" source="aqeLNekioee-tkTE74Kx-9" target="aqeLNekioee-tkTE74Kx-11" edge="1">
          <mxGeometry relative="1" as="geometry" />
        </mxCell>
        <mxCell id="TEpTFiBEpdvt5dawATSR-9" value="6." style="edgeLabel;html=1;align=center;verticalAlign=middle;resizable=0;points=[];" parent="aqeLNekioee-tkTE74Kx-13" vertex="1" connectable="0">
          <mxGeometry x="-0.2" y="1" relative="1" as="geometry">
            <mxPoint as="offset" />
          </mxGeometry>
        </mxCell>
        <mxCell id="aqeLNekioee-tkTE74Kx-9" value="producer_weather" style="rounded=1;whiteSpace=wrap;html=1;fillColor=#d5e8d4;strokeColor=#82b366;" parent="1" vertex="1">
          <mxGeometry x="210" y="275" width="130" height="60" as="geometry" />
        </mxCell>
        <mxCell id="aqeLNekioee-tkTE74Kx-17" style="edgeStyle=orthogonalEdgeStyle;curved=1;rounded=0;orthogonalLoop=1;jettySize=auto;html=1;exitX=1;exitY=0.5;exitDx=0;exitDy=0;entryX=0.75;entryY=0;entryDx=0;entryDy=0;" parent="1" source="aqeLNekioee-tkTE74Kx-10" target="aqeLNekioee-tkTE74Kx-21" edge="1">
          <mxGeometry relative="1" as="geometry">
            <mxPoint x="580" y="235" as="targetPoint" />
          </mxGeometry>
        </mxCell>
        <mxCell id="TEpTFiBEpdvt5dawATSR-11" value=".7" style="edgeLabel;html=1;align=center;verticalAlign=middle;resizable=0;points=[];" parent="aqeLNekioee-tkTE74Kx-17" vertex="1" connectable="0">
          <mxGeometry x="-0.2552" y="-29" relative="1" as="geometry">
            <mxPoint x="-3" y="6" as="offset" />
          </mxGeometry>
        </mxCell>
        <mxCell id="TEpTFiBEpdvt5dawATSR-1" style="edgeStyle=orthogonalEdgeStyle;rounded=0;orthogonalLoop=1;jettySize=auto;html=1;exitX=0.25;exitY=1;exitDx=0;exitDy=0;entryX=1;entryY=0.25;entryDx=0;entryDy=0;curved=1;" parent="1" source="aqeLNekioee-tkTE74Kx-10" target="aqeLNekioee-tkTE74Kx-9" edge="1">
          <mxGeometry relative="1" as="geometry" />
        </mxCell>
        <mxCell id="TEpTFiBEpdvt5dawATSR-5" value="3." style="edgeLabel;html=1;align=center;verticalAlign=middle;resizable=0;points=[];" parent="TEpTFiBEpdvt5dawATSR-1" vertex="1" connectable="0">
          <mxGeometry x="0.1884" y="-6" relative="1" as="geometry">
            <mxPoint x="-10" y="1" as="offset" />
          </mxGeometry>
        </mxCell>
        <mxCell id="aqeLNekioee-tkTE74Kx-10" value="topic_interruptions" style="rounded=0;whiteSpace=wrap;html=1;" parent="1" vertex="1">
          <mxGeometry x="425" y="200" width="110" height="30" as="geometry" />
        </mxCell>
        <mxCell id="aqeLNekioee-tkTE74Kx-18" style="edgeStyle=orthogonalEdgeStyle;curved=1;rounded=0;orthogonalLoop=1;jettySize=auto;html=1;exitX=1;exitY=0.5;exitDx=0;exitDy=0;entryX=0.325;entryY=0;entryDx=0;entryDy=0;entryPerimeter=0;" parent="1" source="aqeLNekioee-tkTE74Kx-11" target="aqeLNekioee-tkTE74Kx-21" edge="1">
          <mxGeometry relative="1" as="geometry">
            <mxPoint x="580" y="235" as="targetPoint" />
            <Array as="points">
              <mxPoint x="629" y="320" />
            </Array>
          </mxGeometry>
        </mxCell>
        <mxCell id="TEpTFiBEpdvt5dawATSR-10" value="7." style="edgeLabel;html=1;align=center;verticalAlign=middle;resizable=0;points=[];" parent="aqeLNekioee-tkTE74Kx-18" vertex="1" connectable="0">
          <mxGeometry x="-0.2985" relative="1" as="geometry">
            <mxPoint as="offset" />
          </mxGeometry>
        </mxCell>
        <mxCell id="aqeLNekioee-tkTE74Kx-11" value="topic_weather" style="rounded=0;whiteSpace=wrap;html=1;" parent="1" vertex="1">
          <mxGeometry x="425" y="305" width="110" height="30" as="geometry" />
        </mxCell>
        <mxCell id="aqeLNekioee-tkTE74Kx-21" value="&lt;div&gt;Consumer_00&lt;/div&gt;" style="rounded=1;whiteSpace=wrap;html=1;fillColor=#d5e8d4;strokeColor=#82b366;" parent="1" vertex="1">
          <mxGeometry x="590" y="360" width="120" height="60" as="geometry" />
        </mxCell>
        <mxCell id="aqeLNekioee-tkTE74Kx-29" style="edgeStyle=none;rounded=0;orthogonalLoop=1;jettySize=auto;html=1;exitX=0;exitY=0.5;exitDx=0;exitDy=0;exitPerimeter=0;entryX=1;entryY=0.5;entryDx=0;entryDy=0;" parent="1" source="aqeLNekioee-tkTE74Kx-23" target="aqeLNekioee-tkTE74Kx-27" edge="1">
          <mxGeometry relative="1" as="geometry" />
        </mxCell>
        <mxCell id="TEpTFiBEpdvt5dawATSR-13" value="9." style="edgeLabel;html=1;align=center;verticalAlign=middle;resizable=0;points=[];" parent="aqeLNekioee-tkTE74Kx-29" vertex="1" connectable="0">
          <mxGeometry x="0.0286" relative="1" as="geometry">
            <mxPoint as="offset" />
          </mxGeometry>
        </mxCell>
        <mxCell id="aqeLNekioee-tkTE74Kx-23" value="Postgres" style="shape=cylinder3;whiteSpace=wrap;html=1;boundedLbl=1;backgroundOutline=1;size=15;fillColor=#d5e8d4;strokeColor=#82b366;" parent="1" vertex="1">
          <mxGeometry x="610" y="470" width="80" height="90" as="geometry" />
        </mxCell>
        <mxCell id="aqeLNekioee-tkTE74Kx-26" style="edgeStyle=orthogonalEdgeStyle;curved=1;rounded=0;orthogonalLoop=1;jettySize=auto;html=1;exitX=0.5;exitY=1;exitDx=0;exitDy=0;entryX=0.5;entryY=0;entryDx=0;entryDy=0;entryPerimeter=0;" parent="1" source="aqeLNekioee-tkTE74Kx-21" target="aqeLNekioee-tkTE74Kx-23" edge="1">
          <mxGeometry relative="1" as="geometry" />
        </mxCell>
        <mxCell id="TEpTFiBEpdvt5dawATSR-12" value="8." style="edgeLabel;html=1;align=center;verticalAlign=middle;resizable=0;points=[];" parent="aqeLNekioee-tkTE74Kx-26" vertex="1" connectable="0">
          <mxGeometry x="-0.44" y="-1" relative="1" as="geometry">
            <mxPoint as="offset" />
          </mxGeometry>
        </mxCell>
        <mxCell id="aqeLNekioee-tkTE74Kx-27" value="Grafana" style="rounded=0;whiteSpace=wrap;html=1;fillColor=#d5e8d4;strokeColor=#82b366;" parent="1" vertex="1">
          <mxGeometry x="420" y="485" width="120" height="60" as="geometry" />
        </mxCell>
        <mxCell id="TEpTFiBEpdvt5dawATSR-6" style="edgeStyle=orthogonalEdgeStyle;rounded=0;orthogonalLoop=1;jettySize=auto;html=1;exitX=0;exitY=0.5;exitDx=0;exitDy=0;entryX=0.55;entryY=0.95;entryDx=0;entryDy=0;entryPerimeter=0;" parent="1" source="aqeLNekioee-tkTE74Kx-9" target="aqeLNekioee-tkTE74Kx-8" edge="1">
          <mxGeometry relative="1" as="geometry">
            <Array as="points">
              <mxPoint x="152" y="305" />
            </Array>
          </mxGeometry>
        </mxCell>
        <mxCell id="TEpTFiBEpdvt5dawATSR-7" value="4." style="edgeLabel;html=1;align=center;verticalAlign=middle;resizable=0;points=[];" parent="TEpTFiBEpdvt5dawATSR-6" vertex="1" connectable="0">
          <mxGeometry x="-0.071" y="-4" relative="1" as="geometry">
            <mxPoint as="offset" />
          </mxGeometry>
        </mxCell>
      </root>
    </mxGraphModel>
  </diagram>
</mxfile>
